<svg width="512" height="512" viewBox="0 0 512 512" fill="none" xmlns="http://www.w3.org/2000/svg">
<g clip-path="url(#clip0_845_999)">
<path d="M225.395 435.105L222.075 434.707L225.098 409.127C225.999 401.534 225.227 393.836 222.837 386.572C220.447 379.309 216.496 372.657 211.262 367.082L121.966 271.783L134.046 210.977C134.711 207.63 134.695 204.183 134 200.842C133.305 197.5 131.945 194.333 130.001 191.528C128.056 188.723 125.567 186.339 122.682 184.516C119.797 182.693 116.574 181.469 113.206 180.917C111.839 180.695 110.455 180.582 109.069 180.58C103.65 180.565 98.3685 182.289 94.0009 185.497C89.6332 188.706 86.4096 193.23 84.8033 198.406L60.4653 276.01C56.0574 290.121 56.3847 305.285 61.3973 319.192L79.2173 368.425C83.4933 380.233 90.9777 390.615 100.829 398.403L111.937 407.183C114.288 409.053 116.243 411.371 117.687 414.004C119.132 416.637 120.038 419.531 120.352 422.517C114.696 421.997 109.06 423.702 104.64 427.269C100.22 430.836 97.3636 435.985 96.6773 441.623L95.1073 454.711L95.1053 454.717V454.724L91.1533 487.66C90.9265 489.63 91.4891 491.61 92.7179 493.166C93.9467 494.722 95.7418 495.728 97.7106 495.965C99.6794 496.201 101.662 495.648 103.224 494.427C104.786 493.205 105.801 491.415 106.046 489.447L109.092 464.057L227.008 479.053L224.062 503.606C223.932 504.59 223.999 505.59 224.258 506.548C224.518 507.506 224.964 508.403 225.573 509.187C226.181 509.971 226.939 510.626 227.803 511.115C228.666 511.604 229.618 511.916 230.604 512.035C231.589 512.153 232.588 512.075 233.543 511.804C234.498 511.534 235.389 511.076 236.166 510.458C236.943 509.841 237.589 509.075 238.068 508.206C238.546 507.337 238.848 506.381 238.954 505.394L242.778 473.521L242.782 473.498L242.784 473.468L244.478 459.358C244.818 456.513 244.594 453.628 243.819 450.87C243.044 448.111 241.733 445.532 239.961 443.28C238.189 441.027 235.99 439.146 233.492 437.744C230.993 436.341 228.242 435.445 225.396 435.105H225.395ZM110.133 386.638C102.47 380.579 96.6475 372.504 93.3203 363.318L75.5003 314.084C71.602 303.27 71.3474 291.477 74.7753 280.504L99.1153 202.897C99.7739 200.774 101.096 198.917 102.888 197.6C104.679 196.283 106.846 195.575 109.069 195.58C109.645 195.581 110.221 195.628 110.789 195.72C112.171 195.948 113.493 196.451 114.676 197.199C115.859 197.948 116.88 198.927 117.677 200.078C118.474 201.229 119.031 202.529 119.316 203.9C119.601 205.271 119.606 206.685 119.333 208.058L107.137 269.447C100.462 274.046 95.7165 280.943 93.8068 288.82C91.897 296.698 92.9575 305.003 96.7853 312.147L118.035 351.897C118.973 353.652 120.57 354.961 122.473 355.539C123.416 355.824 124.406 355.922 125.386 355.825C126.366 355.729 127.318 355.44 128.186 354.975C129.055 354.511 129.824 353.88 130.448 353.118C131.073 352.357 131.542 351.48 131.828 350.537C132.113 349.595 132.211 348.605 132.114 347.625C132.018 346.645 131.729 345.693 131.264 344.824L110.012 305.07C108.608 302.472 107.875 299.564 107.879 296.61C107.874 291.936 109.686 287.443 112.933 284.08L200.316 377.338C204.055 381.32 206.877 386.072 208.584 391.26C210.292 396.448 210.844 401.946 210.201 407.37L207.182 432.92L135.466 424.315C135.379 418.746 134.058 413.266 131.598 408.268C129.138 403.271 125.6 398.882 121.239 395.416L110.133 386.638ZM229.585 457.57L228.795 464.158L110.879 449.162L111.569 443.41C111.792 441.616 112.717 439.983 114.141 438.869C115.565 437.755 117.373 437.251 119.168 437.467L126.81 438.384H126.815L223.608 449.998C225.405 450.21 227.044 451.127 228.165 452.547C229.286 453.967 229.797 455.774 229.585 457.57ZM332.729 223.134C353.514 193.666 364.499 160.011 364.499 125.804V46.9403C364.499 45.1487 363.858 43.4163 362.691 42.0566C361.525 40.6969 359.91 39.7996 358.139 39.5273C339.029 36.605 320.342 31.3852 302.483 23.9813C287.902 17.9424 274.011 10.3553 261.049 1.35033C259.753 0.445205 258.204 -0.0270042 256.623 0.00119318C255.043 0.0293905 253.511 0.556551 252.248 1.50733C242.744 8.63699 232.598 14.8684 221.94 20.1213C200.583 30.5575 177.638 37.3678 154.045 40.2733C152.236 40.5056 150.574 41.389 149.369 42.7584C148.164 44.1278 147.499 45.8893 147.499 47.7133V125.805C147.499 160.011 158.484 193.666 179.269 223.134C197.277 248.664 222.554 270.884 252.366 287.392C253.478 288.008 254.728 288.331 255.999 288.331C257.27 288.331 258.52 288.008 259.632 287.392C289.444 270.884 314.721 248.664 332.729 223.134ZM255.999 272.213C229.737 257.034 207.506 237.143 191.526 214.487C172.536 187.564 162.499 156.897 162.499 125.805V54.2253C185.452 50.7491 207.738 43.7833 228.585 33.5693C238.46 28.6967 247.933 23.0479 256.914 16.6763C269.481 24.9773 282.811 32.0607 296.722 37.8303C313.704 44.8763 331.4 50.0606 349.499 53.2923V125.805C349.499 156.897 339.462 187.565 320.472 214.487C304.492 237.143 282.261 257.034 255.999 272.213ZM334.499 71.4663C334.499 69.7935 333.94 68.1686 332.911 66.8501C331.881 65.5315 330.44 64.595 328.817 64.1893C315.905 60.9651 303.25 56.7832 290.959 51.6783C280.682 47.406 270.695 42.4668 261.062 36.8923C259.891 36.2137 258.558 35.8645 257.205 35.8817C255.851 35.899 254.528 36.282 253.374 36.9903C247.483 40.608 241.428 43.9538 235.23 47.0173C218.692 55.1499 201.268 61.3437 183.307 65.4753C181.656 65.8577 180.183 66.7881 179.128 68.1148C178.074 69.4416 177.499 71.0864 177.499 72.7813V125.805C177.499 153.785 186.588 181.461 203.784 205.841C216.161 223.389 232.325 238.904 251.827 251.956C253.062 252.783 254.514 253.224 255.999 253.224C257.485 253.224 258.937 252.783 260.171 251.956C279.673 238.904 295.837 223.389 308.214 205.841C325.41 181.461 334.499 153.785 334.499 125.805V71.4663ZM319.499 125.805C319.499 150.673 311.359 175.358 295.956 197.195C284.944 212.484 271.436 225.81 255.999 236.615C240.563 225.81 227.055 212.483 216.042 197.193C200.64 175.357 192.499 150.672 192.499 125.803V78.6743C209.546 74.3364 226.094 68.2334 241.875 60.4643C247.154 57.856 252.335 55.0554 257.408 52.0683C266.408 57.0784 275.686 61.5724 285.196 65.5283C296.368 70.1691 307.826 74.0879 319.499 77.2603V125.805ZM451.535 276.015L427.195 198.403C425.246 192.19 420.989 186.96 415.3 183.791C409.612 180.621 402.925 179.752 396.615 181.364C390.306 182.976 384.854 186.945 381.382 192.454C377.911 197.964 376.683 204.594 377.952 210.981L390.032 271.783L300.736 367.082C295.502 372.657 291.552 379.31 289.161 386.574C286.771 393.838 285.999 401.537 286.9 409.13L289.923 434.707L286.603 435.105C283.758 435.445 281.007 436.341 278.508 437.744C276.009 439.146 273.811 441.027 272.039 443.279C270.267 445.531 268.956 448.11 268.181 450.869C267.406 453.628 267.182 456.512 267.521 459.357L269.214 473.469L269.216 473.498L269.22 473.521L273.044 505.394C273.159 506.374 273.467 507.322 273.948 508.183C274.43 509.044 275.077 509.801 275.852 510.412C276.627 511.022 277.515 511.474 278.465 511.741C279.415 512.008 280.408 512.084 281.387 511.967C282.367 511.849 283.314 511.539 284.173 511.055C285.033 510.571 285.789 509.922 286.397 509.146C287.006 508.369 287.455 507.48 287.719 506.529C287.983 505.579 288.058 504.586 287.937 503.606L284.991 479.053L402.906 464.056L405.952 489.447C406.198 491.415 407.213 493.205 408.775 494.427C410.337 495.648 412.319 496.201 414.288 495.965C416.257 495.728 418.052 494.722 419.281 493.166C420.51 491.61 421.072 489.63 420.845 487.66L416.893 454.724V454.717L416.892 454.711L415.322 441.623C414.633 435.986 411.776 430.839 407.356 427.272C402.937 423.706 397.302 422 391.646 422.517C391.96 419.531 392.866 416.637 394.31 414.005C395.755 411.372 397.709 409.053 400.059 407.184L411.172 398.401C421.023 390.613 428.507 380.231 432.782 368.423L450.6 319.195C455.614 305.289 455.942 290.125 451.535 276.015ZM392.83 437.467C394.625 437.252 396.433 437.756 397.857 438.87C399.281 439.984 400.206 441.616 400.429 443.41L401.119 449.162L283.204 464.158L282.414 457.57C282.203 455.774 282.714 453.967 283.835 452.547C284.955 451.127 286.594 450.21 288.39 449.998L385.183 438.384H385.188L392.83 437.467ZM436.497 314.087L418.677 363.315C415.352 372.5 409.531 380.576 401.868 386.635L390.758 395.417C386.398 398.883 382.861 403.272 380.401 408.269C377.941 413.266 376.62 418.746 376.532 424.315L304.816 432.92L301.796 407.373C301.154 401.949 301.706 396.45 303.413 391.261C305.121 386.073 307.943 381.321 311.682 377.338L399.065 284.079C402.313 287.442 404.125 291.936 404.119 296.61C404.123 299.565 403.389 302.475 401.984 305.074L380.734 344.824C380.27 345.693 379.981 346.645 379.885 347.625C379.788 348.605 379.885 349.595 380.171 350.537C380.457 351.48 380.926 352.357 381.551 353.118C382.176 353.88 382.944 354.51 383.813 354.975C384.681 355.439 385.633 355.728 386.613 355.824C387.593 355.921 388.583 355.824 389.526 355.538C390.468 355.252 391.345 354.783 392.107 354.158C392.868 353.534 393.499 352.765 393.963 351.896L415.211 312.15C419.04 305.006 420.101 296.7 418.192 288.822C416.283 280.944 411.537 274.046 404.861 269.447L392.666 208.062C392.393 206.691 392.398 205.278 392.681 203.909C392.965 202.54 393.52 201.241 394.315 200.09C395.109 198.939 396.127 197.96 397.308 197.21C398.488 196.461 399.807 195.956 401.186 195.725C401.763 195.631 402.345 195.582 402.929 195.58C405.153 195.575 407.319 196.282 409.111 197.599C410.902 198.915 412.225 200.772 412.883 202.895L437.225 280.51C440.652 291.482 440.396 303.274 436.497 314.087Z" fill="black"/>
</g>
<defs>
<clipPath id="clip0_845_999">
<rect width="512" height="512" fill="white"/>
</clipPath>
</defs>
</svg>
