 <svg width="194" height="171" viewBox="0 0 194 171" fill="none" xmlns="http://www.w3.org/2000/svg">
                                <path d="M31.068 13.9974C22.8013 17.5974 22.668 18.6641 22.668 72.5307C22.668 106.531 23.068 122.264 24.268 124.531C27.3346 131.597 30.9346 132.531 53.468 133.064L74.268 133.597L72.9346 139.864C72.268 143.197 71.468 146.264 71.068 146.664C70.8013 146.931 67.7346 147.597 64.4013 147.997C56.8013 148.797 54.268 151.864 57.868 155.864C60.268 158.531 61.7346 158.664 94.668 158.664C127.601 158.664 129.068 158.531 131.468 155.864C135.201 151.731 132.535 148.797 124.935 148.264C118.135 147.864 116.935 146.531 115.468 138.397L114.535 133.597L135.068 133.064C152.001 132.797 156.135 132.264 159.201 130.264C166.401 125.464 166.668 122.931 166.668 71.9974C166.668 20.2641 166.535 19.7307 158.268 14.6641C154.268 12.1307 151.201 11.9974 94.668 11.9974C47.068 12.1307 34.5346 12.5307 31.068 13.9974ZM156.001 26.6641C156.935 28.2641 157.201 42.3974 157.068 66.9307L156.668 104.664L95.068 105.064L33.3346 105.331V64.6641V23.9974H94.0013C152.801 23.9974 154.668 24.1307 156.001 26.6641ZM155.335 119.331C155.335 121.997 154.268 121.997 95.2013 122.397C43.6013 122.664 34.8013 122.397 33.3346 120.797C32.5346 119.597 32.1346 118.131 32.668 117.331C33.2013 116.397 52.8013 116.131 94.4013 116.264C154.268 116.664 155.335 116.664 155.335 119.331ZM104.401 134.264C104.801 134.931 105.468 138.131 105.868 141.597L106.801 147.997H94.8013C81.3346 147.997 81.3346 148.131 84.1346 138.264L85.468 133.331H94.668C99.7346 133.331 104.135 133.731 104.401 134.264Z" fill="#e22a90"/>
                                <path d="M45.7335 33.1979C39.8668 36.9312 37.4668 44.5312 40.5335 50.3979C42.9335 55.0645 48.8002 58.6645 53.8668 58.6645C56.0002 58.6645 57.8668 59.7312 58.8002 61.5979C59.6002 63.3312 61.4668 65.9979 62.9335 67.5979C64.9335 69.7312 65.4668 71.7312 64.9335 74.9312C63.6002 83.5979 70.4002 91.9979 78.8002 91.9979C83.2002 91.9979 90.6668 83.7312 90.6668 78.7979C90.6668 75.4645 91.8668 73.7312 97.3335 69.4645C102.933 65.0645 104.533 64.3979 107.733 65.1979C109.733 65.7312 112 65.9979 112.8 65.7312C113.733 65.4645 116.533 68.2645 119.333 71.9979C123.333 77.4645 124.133 79.5979 123.467 82.7979C121.467 92.6645 131.467 102.265 140.133 98.6645C146 96.1312 148.4 92.6645 148.533 86.1312C148.667 78.6645 144.533 73.5979 137.067 72.5312C129.2 71.1979 123.333 63.1979 123.333 53.5979C123.2 47.1979 122.667 45.8645 118.933 42.5312C113.467 37.5979 108.267 37.4645 102.8 42.1312C100 44.3979 98.4002 47.1979 97.8668 50.7979C97.2002 54.7979 95.6002 57.0645 91.0668 60.7979C85.7335 65.1979 84.6668 65.5979 79.3335 64.7979C74.2668 63.9979 72.8002 62.9312 69.0668 57.5979C65.6002 52.9312 64.6668 50.5312 65.3335 47.9979C68.1335 36.9312 55.3335 27.3312 45.7335 33.1979ZM55.7335 43.5979C55.2002 46.5312 49.3335 47.7312 49.3335 44.9312C49.3335 42.3979 50.6668 41.3312 53.6002 41.3312C55.3335 41.3312 56.0002 42.1312 55.7335 43.5979ZM113.2 51.1979C114.267 52.5312 114.267 53.3312 112.933 54.3979C110.667 56.2645 107.333 54.1312 108.4 51.4645C109.467 48.7979 111.2 48.7979 113.2 51.1979ZM80.4002 76.5312C81.4668 79.0645 78.4002 81.4645 76.1335 79.9979C73.8668 78.6645 75.2002 74.6645 77.8668 74.6645C78.8002 74.6645 80.0002 75.4645 80.4002 76.5312ZM138.667 86.7979C138.667 88.3979 137.733 89.3312 136 89.3312C133.467 89.3312 132.267 85.5979 134.133 83.5979C135.6 82.1312 138.667 84.2645 138.667 86.7979Z" fill="#e22a90"/>
                            </svg>