<svg width="288" height="190" viewBox="0 0 288 190" fill="none" xmlns="http://www.w3.org/2000/svg">
                                <path d="M59.2243 22.234C58.3557 24.1297 57.4871 26.8871 57.4871 28.2658C57.4871 30.5061 54.8814 31.0231 42.2002 31.0231C33.3406 31.0231 26.0446 30.1615 25.0023 29.1274C23.96 28.0934 22.0491 27.7488 20.8331 28.4381C19.2697 29.4721 19.6171 30.3338 21.8754 32.2295C24.1337 33.7805 30.5612 34.4698 41.8527 34.4698C57.3134 34.4698 58.5294 34.6422 60.0929 38.2612C61.6563 41.7079 63.2198 42.2249 73.9901 42.742C89.6246 43.4313 93.62 42.3973 95.0098 37.0549C95.8783 33.4358 97.0944 32.7465 101.958 32.7465H107.865V44.81V56.8735H113.945C121.936 56.8735 122.978 59.8032 118.461 69.2816C116.551 73.4177 114.466 78.9324 113.945 81.5175C112.902 85.4812 111.86 86.1705 106.128 86.1705C99.1789 86.1705 97.4418 84.2748 97.4418 76.5197C97.4418 69.454 94.3149 65.4903 88.756 65.4903C85.2817 65.4903 83.3708 64.4562 82.6759 62.0435C81.2862 57.5628 76.9433 56.5288 60.0929 57.2181C46.8905 57.7351 46.1956 57.9075 43.9373 62.3882C41.679 67.0413 41.3316 67.2136 27.2606 67.2136C19.0959 67.2136 12.1473 66.3519 11.105 65.3179C10.0627 64.2839 8.15185 63.9392 6.93584 64.6286C5.3724 65.6626 5.71983 66.5243 7.97813 68.42C10.2364 69.7986 16.4902 70.6603 26.392 70.6603C40.463 70.6603 41.679 71.005 44.2847 74.9687C47.0642 79.1048 48.1065 79.2771 62.6986 79.2771C78.5068 79.2771 83.5445 77.3814 83.5445 71.3497C83.5445 68.2476 93.7938 68.0753 94.3149 71.005C95.0098 77.7261 95.3572 99.785 94.4886 103.921C93.7938 108.229 93.0989 108.746 87.3663 108.229C82.1548 107.712 80.9388 106.851 79.8965 102.715C77.9856 95.8213 75.901 94.7873 61.83 94.7873C47.4116 94.7873 45.327 95.8213 43.7636 103.576L42.5476 109.436L28.3029 109.953C16.6639 110.298 13.8845 109.953 13.0159 107.712C11.7999 104.61 7.80442 104.266 6.06726 107.195C3.46152 111.332 11.105 113.744 27.0869 113.744C40.6367 113.744 43.2424 114.261 45.8482 117.191C48.2802 120.121 50.8859 120.638 61.6563 120.638C74.1639 120.638 80.0702 118.397 80.0702 113.572C80.0702 112.71 82.6759 112.021 85.8028 112.021C94.3149 112.021 96.3995 109.781 97.4418 99.6127L98.3104 90.4789L105.78 89.9619C111.86 89.4449 113.076 89.9619 113.076 92.5469C113.25 94.2703 114.987 99.9574 117.245 105.127C119.504 110.125 121.067 115.468 120.546 116.674C120.025 117.88 117.072 118.914 113.771 118.914H107.865V130.978V143.041H102.48C98.3104 143.041 96.9206 142.007 95.5309 138.044C93.4463 132.184 90.1457 130.978 75.3799 130.978C64.0883 130.978 57.4871 134.424 57.4871 140.456C57.4871 142.524 54.534 143.041 42.0264 143.041C33.3406 143.041 25.8709 142.18 25.3497 141.318C23.4388 138.044 21.0068 139.595 21.0068 143.903C21.0068 147.694 21.528 148.039 24.3074 146.488C26.2183 145.626 34.2092 144.765 42.3739 144.765H56.7923L59.398 150.279C61.83 155.794 62.1775 155.966 73.9901 156.483C89.7983 157.173 92.7515 156.311 95.1835 149.935C96.9206 145.626 97.9629 144.765 103.174 144.765C110.297 144.765 111.339 142.869 111.339 129.944V120.638H117.245C121.588 120.638 123.325 119.776 124.02 117.363C124.715 114.261 125.063 114.261 134.443 117.363C143.129 120.293 144.692 120.293 152.51 118.053C157.026 116.674 161.022 115.468 161.369 115.468C161.543 115.468 161.717 116.502 161.717 117.88C161.717 119.604 164.149 120.638 169.186 120.982L176.482 121.499L177.004 133.046L177.525 144.765H183.431C188.643 144.765 189.859 145.626 191.943 150.796L194.549 156.828H209.488H224.428L227.034 150.624L229.64 144.248L248.748 145.109C259.171 145.454 267.683 145.454 267.683 144.937C267.51 141.835 264.73 139.939 262.472 141.318C261.082 142.352 253.091 143.041 244.579 143.041C229.64 143.041 229.292 143.041 227.555 138.388C225.123 131.667 223.212 130.978 209.488 130.978C195.591 130.978 193.854 131.667 191.422 138.388C189.859 142.352 188.643 143.214 184.647 142.697C180.131 142.18 179.957 141.835 179.436 130.633L178.915 119.087L172.487 118.57C164.496 117.88 163.28 113.917 169.186 107.023C171.445 104.266 174.05 99.0957 174.572 95.8213C175.614 90.1342 176.309 89.6172 181.52 89.6172C187.253 89.6172 187.427 89.7896 188.121 98.5787C189.164 108.229 192.291 112.021 199.587 112.021C202.019 112.021 205.667 113.917 207.925 116.329C211.573 120.293 213.31 120.638 225.992 120.638C237.63 120.638 240.41 120.121 243.363 117.191C246.316 114.261 249.096 113.744 260.561 113.744C276.543 113.744 279.843 112.883 279.843 108.574C279.843 103.749 276.89 102.887 274.632 106.851C272.895 110.125 271.331 110.47 259.345 109.953L246.143 109.436L244.927 103.576C244.232 100.474 242.668 97.2 241.278 96.3383C240.062 95.4766 232.94 94.7873 225.644 94.7873C211.052 94.7873 205.146 97.717 205.146 105.127C205.146 107.712 203.93 108.574 200.108 108.574C192.464 108.574 191.422 105.817 191.769 87.0322L192.117 69.7986L198.718 69.2816C203.408 68.937 205.146 69.454 205.146 71.1773C205.146 77.0367 211.052 79.2771 226.513 79.2771C240.584 79.2771 241.8 78.9324 244.405 74.9687C247.011 71.1773 248.401 70.8327 262.993 70.3156C278.106 69.7986 278.975 69.6263 279.496 65.8349C280.191 61.5265 275.674 60.4925 273.937 64.6286C273.242 66.5243 269.942 67.2136 260.04 67.2136C247.532 67.2136 247.011 67.0413 244.753 62.3882C242.495 57.9075 241.8 57.7351 228.597 57.2181C211.747 56.5288 207.404 57.5628 206.014 62.0435C205.146 64.6286 203.408 65.4903 199.066 65.4903C191.769 65.4903 187.774 70.488 187.774 79.6218C187.774 85.8259 187.6 86.1705 181.868 86.1705C176.83 86.1705 175.961 85.4812 175.093 81.3451C174.572 78.7601 172.14 73.7624 169.708 70.1433C163.801 61.6989 163.801 56.8735 169.36 56.8735C178.046 56.8735 179.088 55.4948 179.088 43.776V32.7465H185.168C189.859 32.7465 191.248 33.4358 191.248 35.8485C191.248 41.7079 194.896 43.0866 210.531 43.0866C224.602 43.0866 225.992 42.742 229.118 38.7782C232.419 34.6422 233.461 34.4698 249.269 34.4698C264.73 34.4698 265.946 34.2975 265.946 31.0231C265.946 27.4041 263.34 26.3701 261.603 29.2998C261.082 30.1615 254.133 31.0231 246.143 31.0231H231.898L230.334 25.3361L228.597 19.8213H210.357C192.464 19.8213 192.291 19.8213 191.248 24.1297C190.553 27.4041 188.99 28.6104 185.168 28.9551C178.046 29.6444 175.614 33.6082 175.614 44.293V53.4268H169.36C164.496 53.4268 162.933 54.2884 162.238 57.0458C161.543 59.6308 160.327 60.3202 157.547 59.6308C146.951 56.5288 138.091 56.7011 131.664 60.1478C126.279 62.9052 124.889 63.0776 124.194 61.0095C123.847 59.6308 123.152 57.3905 122.631 56.0118C122.283 54.4608 119.851 53.4268 116.551 53.4268H111.339V42.3973C111.339 30.6785 110.297 29.2998 101.611 29.2998C98.3104 29.2998 96.7469 27.9211 95.5309 24.1297L93.62 18.9596H77.2908C63.0461 18.9596 60.7877 19.3043 59.2243 22.234ZM146.082 61.0095C146.082 61.5265 145.387 62.3882 144.345 62.9052C143.476 63.4222 142.608 63.0776 142.608 62.2159C142.608 61.1819 143.476 60.3202 144.345 60.3202C145.387 60.3202 146.082 60.6649 146.082 61.0095ZM155.463 62.0435C157.895 62.9052 159.979 64.8009 159.979 66.3519C159.979 69.971 158.763 69.6263 153.726 64.6286C148.862 59.8032 149.035 59.6308 155.463 62.0435ZM133.922 63.5946C133.922 64.4562 132.706 65.4903 131.316 66.1796C128.711 67.0413 127.842 65.3179 129.927 63.2499C131.49 61.5265 133.922 61.6989 133.922 63.5946ZM121.415 80.4834C119.33 83.0685 121.415 94.098 125.41 100.819C129.579 107.885 137.223 113.227 142.608 112.883C149.557 112.538 161.369 105.127 163.106 100.13C168.318 85.3088 168.839 83.0685 166.754 78.5878C164.496 73.7624 165.886 70.6603 168.839 73.59C175.266 79.9664 173.008 102.198 165.712 105.644C163.454 106.678 161.717 108.402 161.717 109.436C161.717 112.366 151.12 117.191 145.04 117.191C138.265 117.191 128.711 113.4 128.711 110.815C128.711 109.608 126.8 107.712 124.541 106.506C116.551 103.059 113.597 88.2386 118.288 76.6921C120.199 72.039 120.546 71.8667 121.762 74.9687C122.457 76.8644 122.283 79.2771 121.415 80.4834Z" fill="#3c5ba4"/>
                                </svg>