<svg width="16" height="16" viewBox="0 0 16 16" fill="none" xmlns="http://www.w3.org/2000/svg">
<g clip-path="url(#clip0_910_551)">
<path d="M8 6.48047C9.65685 6.48047 11 5.13732 11 3.48047C11 1.82361 9.65685 0.480469 8 0.480469C6.34315 0.480469 5 1.82361 5 3.48047C5 5.13732 6.34315 6.48047 8 6.48047Z" fill="#A93A96"/>
<path d="M15.4299 13.4203C15.1187 12.0034 14.4051 10.7065 13.3749 9.68528C13.1248 9.43435 12.8538 9.20519 12.5649 9.00028C11.2489 8.01316 9.64487 7.4861 7.99988 7.50028C5.98845 7.48998 4.05453 8.27541 2.61988 9.68528C1.58963 10.7065 0.876069 12.0034 0.564878 13.4203C0.510789 13.6708 0.513711 13.9303 0.573428 14.1796C0.633145 14.4288 0.74813 14.6615 0.909878 14.8603C1.07739 15.0634 1.28833 15.2263 1.52716 15.3371C1.766 15.4478 2.02663 15.5036 2.28988 15.5003H13.7099C13.9739 15.5004 14.2346 15.4412 14.4726 15.327C14.7106 15.2127 14.9199 15.0464 15.0849 14.8403C15.2437 14.6438 15.357 14.4145 15.4167 14.169C15.4764 13.9235 15.4809 13.6678 15.4299 13.4203Z" fill="#A93A96"/>
</g>
<defs>
<clipPath id="clip0_910_551">
<rect width="16" height="16" fill="white"/>
</clipPath>
</defs>
</svg>
