<svg width="837" height="816" viewBox="0 0 837 816" fill="none" xmlns="http://www.w3.org/2000/svg">
<g clip-path="url(#clip0_571_999)">
<path d="M161.776 179.624C170.196 179.604 178.616 179.604 187.037 179.626C193.48 179.637 199.923 179.633 206.367 179.631C217.175 179.631 227.985 179.641 238.794 179.66C249.903 179.679 261.012 179.686 272.121 179.68C285.539 179.674 298.957 179.677 312.376 179.69C317.492 179.694 322.607 179.695 327.723 179.693C333.743 179.691 339.761 179.699 345.78 179.715C347.988 179.719 350.196 179.72 352.404 179.717C355.418 179.714 358.432 179.723 361.446 179.735L364.091 179.724C375.772 179.808 375.772 179.808 379.834 183.796C384.909 193.364 384.427 204.392 384.374 214.913C384.394 221.091 384.394 227.269 384.372 233.446C384.36 238.179 384.364 242.911 384.366 247.643C384.366 255.584 384.356 263.525 384.337 271.466C384.317 280.631 384.311 289.796 384.319 298.96C384.324 307.802 384.319 316.644 384.308 325.486C384.303 329.239 384.301 332.991 384.304 336.743C384.306 341.163 384.298 345.583 384.282 350.003C384.278 351.62 384.277 353.237 384.28 354.853C384.291 362.813 384.157 370.283 382.001 377.996L381.439 380.808C378.921 384.639 375.329 385.795 371.001 386.996C365.062 387.574 359.154 387.536 353.192 387.492C347.834 387.507 342.476 387.497 337.119 387.463C332.499 387.434 327.878 387.437 323.257 387.45C319.678 387.457 316.1 387.449 312.522 387.436C310.819 387.432 309.116 387.432 307.414 387.436C286.951 387.461 286.951 387.461 279.501 382.246C275.889 376.828 275.714 370.86 275.774 364.582V362.126C275.774 359.469 275.79 356.813 275.806 354.156L275.814 348.604C275.822 343.749 275.841 338.894 275.864 334.04C275.888 328.206 275.897 322.372 275.909 316.538C275.928 307.691 275.966 298.844 276.001 289.996H228.001V538.996L233.001 539.996L234.001 543.996L236.118 544.18L238.876 544.433L241.618 544.68C244.001 544.996 244.001 544.996 246.001 545.996V547.996L247.876 548.683C250.63 550.385 250.823 552.05 252.001 554.996L254.064 555.996L256.001 556.996C256.751 559.621 256.751 559.621 257.001 561.996L258.864 562.144L261.314 562.371C262.114 562.441 262.914 562.511 263.739 562.581C266.001 562.996 266.001 562.996 269.001 564.996V566.996L276.001 567.996L275.993 566.16C275.926 551.395 275.877 536.629 275.846 521.863C275.83 514.723 275.809 507.583 275.775 500.442C275.745 494.216 275.725 487.99 275.719 481.764C275.715 478.469 275.704 475.174 275.684 471.88C275.662 468.196 275.659 464.512 275.66 460.828L275.628 457.543C275.653 451.323 276.288 446.63 279.001 440.996C281.376 439.121 281.376 439.121 284.001 437.996L286.161 436.943C289.819 435.723 293.265 435.709 297.077 435.721L299.498 435.706C302.132 435.692 304.766 435.693 307.399 435.696L312.91 435.682C316.759 435.675 320.607 435.675 324.455 435.68C329.377 435.686 334.298 435.67 339.22 435.646C343.013 435.631 346.807 435.63 350.6 435.633C352.414 435.633 354.228 435.628 356.042 435.618C358.583 435.608 361.125 435.61 363.667 435.624L365.918 435.601C371.788 435.659 376.748 436.744 381.001 440.996C384.741 449.796 384.148 459.921 384.135 469.306L384.142 472.953C384.147 476.267 384.148 479.581 384.146 482.895C384.146 486.479 384.152 490.063 384.156 493.648C384.165 500.658 384.167 507.668 384.168 514.679C384.168 520.378 384.171 526.076 384.174 531.775C384.183 547.945 384.187 564.114 384.186 580.284V585.562C384.186 599.698 384.196 613.835 384.209 627.971C384.224 642.499 384.231 657.027 384.229 671.554C384.229 679.706 384.232 687.857 384.243 696.008C384.253 702.944 384.254 709.881 384.248 716.817C384.244 720.354 384.244 723.891 384.253 727.429C384.263 731.266 384.256 735.103 384.248 738.939L384.264 742.315C384.237 748.24 383.721 753.319 382.001 758.996L381.325 761.273C380.689 762.933 380.689 762.933 379.001 765.996C375.486 767.472 373.905 766.963 370.267 765.703C368.921 765.086 367.582 764.454 366.251 763.808L364.177 762.885C359.237 760.552 359.237 760.552 358.047 757.758L358.001 755.996L356.138 755.699C349.401 754.453 349.401 754.453 347.251 751.996L346.001 749.996C343.53 748.841 343.53 748.841 341.001 747.996L338.001 745.996V743.996L335.626 743.246C333.001 741.996 333.001 741.996 332.064 739.996C330.472 737 328.145 736.958 325.001 735.996C323.98 735.017 322.979 734.017 322.001 732.996L320.064 732.621C318.001 731.996 318.001 731.996 316.314 729.683C313.542 726.463 311.04 725.478 307.177 723.891C301.01 721.355 296.696 717.538 293.001 711.996C290.036 710.617 287.011 709.516 283.946 708.375C280.903 706.95 279.273 705.422 277.001 702.996L274.376 701.996C271.436 700.758 271.377 699.748 270.001 696.996C268.357 696.272 266.69 695.605 265.001 694.996L264.001 692.996C261.498 692.391 258.992 692.038 256.446 691.656C252.715 690.649 251.466 688.694 249.376 685.558C248.168 683.308 247.463 681.488 247.001 678.996L245.189 678.746C243.001 677.996 243.001 677.996 241.689 676.121C239.324 673.143 236.475 672.423 233.001 670.996L230.001 667.996L226.626 666.558C223.134 665.053 220.884 663.423 218.001 660.996L215.251 659.433C213.001 657.996 213.001 657.996 212.001 654.996L209.626 654.746L207.001 653.996C206.301 652.68 205.634 651.346 205.001 649.996L202.376 648.433L200.001 646.996V643.996L196.251 643.746C192.103 643.233 190.916 641.996 188.001 638.996C185.416 637.88 182.811 636.932 180.146 636.023L178.001 634.996L177.001 631.996C174.672 630.969 174.672 630.969 171.939 630.308C171.019 630.058 170.1 629.806 169.153 629.547L167.001 628.996V626.996H165.001V624.996L161.001 623.996L160.814 622.121L160.001 619.996C158.348 619.294 156.681 618.627 155.001 617.996L154.001 614.996C150.489 613.766 150.489 613.766 147.001 612.996L146.876 611.121L146.001 608.996C143.164 607.8 143.164 607.8 140.001 606.996C138.65 606.364 137.316 605.697 136.001 604.996V602.996L133.376 602.496C128.774 600.451 126.496 597.304 124.001 592.996C122.81 589.411 122.875 585.975 122.872 582.218L122.867 580.145C122.862 577.842 122.865 575.539 122.867 573.235L122.86 568.245C122.854 563.665 122.854 559.085 122.856 554.505C122.856 549.569 122.85 544.633 122.846 539.697C122.837 530.024 122.835 520.352 122.834 510.679C122.834 502.821 122.831 494.962 122.828 487.104C122.819 464.842 122.815 442.58 122.816 420.317V413.036C122.816 393.538 122.806 374.041 122.793 354.543C122.778 334.541 122.771 314.538 122.773 294.536C122.773 283.299 122.77 272.062 122.759 260.825C122.749 251.261 122.748 241.696 122.754 232.132C122.758 227.249 122.758 222.365 122.749 217.482C122.741 213.017 122.743 208.552 122.751 204.087C122.753 202.467 122.751 200.847 122.746 199.226C122.739 197.033 122.744 194.841 122.752 192.648V188.948C123.001 185.996 123.001 185.996 125.001 182.996C136.546 178.598 149.655 179.578 161.776 179.624Z" fill="#704B9D"/>
<path d="M468.513 179.977C483.161 179.84 497.81 179.812 512.458 179.801C527.28 179.781 542.103 179.768 556.926 179.762C569.856 179.758 582.786 179.74 595.716 179.712C605.758 179.69 615.801 179.679 625.843 179.678C631.824 179.677 637.805 179.671 643.787 179.653C649.391 179.637 654.996 179.635 660.6 179.643C662.656 179.644 664.71 179.64 666.766 179.63C669.569 179.62 672.372 179.621 675.176 179.634L677.64 179.609C682.48 179.651 685.835 180.273 689.999 183.001C693.336 186.423 693.377 189.128 693.385 193.811L693.401 195.895C693.415 198.211 693.407 200.526 693.401 202.842C693.433 209.119 693.444 215.396 693.436 221.672C693.435 226.635 693.451 231.598 693.466 236.56C693.49 246.287 693.498 256.013 693.5 265.74C693.502 273.645 693.508 281.55 693.517 289.455C693.544 311.858 693.557 334.261 693.555 356.664V363.991C693.553 383.599 693.582 403.206 693.625 422.813C693.667 442.937 693.688 463.06 693.685 483.183C693.685 494.485 693.693 505.786 693.725 517.088C693.752 526.711 693.759 536.333 693.739 545.956C693.729 550.866 693.729 555.776 693.755 560.686C693.778 565.183 693.774 569.678 693.748 574.173C693.743 575.799 693.748 577.425 693.765 579.051C693.905 593.714 693.905 593.714 688.578 599.655C686.244 601.645 683.82 602.825 680.999 604.001L677.937 606.126C674.999 608.001 674.999 608.001 672.437 608.439C668.944 609.245 667.423 611.449 664.999 614.001L661.999 615.001L660.374 617.126C657.116 621.07 653.247 624.156 648.999 627.001H646.999V629.001C641.249 632.001 641.249 632.001 638.999 632.001L637.999 635.001C636.073 636.028 636.073 636.028 633.687 636.939C630.774 638.136 629.125 638.875 626.874 641.126C624.999 643.001 624.999 643.001 621.437 644.001C617.659 645.1 617.046 645.829 614.999 649.001L611.999 650.001L611.124 652.001C609.999 654.001 609.999 654.001 607.374 654.751L604.999 655.001L604.812 657.376L603.999 660.001C601.624 661.064 601.624 661.064 598.999 662.001L597.749 664.001C595.265 666.841 592.697 666.879 589.058 667.411C586.619 667.87 586.619 667.87 584.999 671.001C583.194 671.774 583.194 671.774 581.124 672.376C577.117 673.731 575.504 675.567 572.999 679.001H569.999L569.312 681.314C567.692 684.631 566.247 685.339 562.999 687.001L560.499 688.564C557.999 690.001 557.999 690.001 555.437 690.939C552.604 692.173 551.134 693.797 548.999 696.001L544.999 698.001L543.062 699.939C540.866 702.134 538.741 703.558 535.999 705.001H533.999V707.001L528.999 708.001V710.001L526.187 711.814C522.917 713.706 522.917 713.706 521.624 716.501C519.545 719.699 517.394 720.55 513.987 722.095C511.834 723.03 511.834 723.03 509.312 724.626C506.999 726.001 506.999 726.001 504.374 727.001C501.963 727.813 501.963 727.813 500.624 729.564C498.079 731.815 495.288 731.691 491.999 732.001L491.749 733.876C490.999 736.001 490.999 736.001 489.249 736.939L486.999 738.001C485.311 739.647 483.644 741.314 481.999 743.001C478.065 746.763 475.462 749.091 469.999 750.001L468.749 751.876C466.322 754.823 463.687 755.189 460.058 756.095C457.418 757.257 457.214 758.467 455.999 761.001C454.229 761.942 454.229 761.942 452.187 762.564C449.515 763.436 447.706 764.192 445.312 765.751C442.999 767.001 442.999 767.001 440.374 767.001C436.492 765.367 435.609 762.337 433.933 758.667C432.928 755.797 432.746 753.633 432.742 750.601L432.722 747.336L432.732 743.767L432.718 739.962C432.706 736.479 432.706 732.996 432.708 729.513C432.708 725.756 432.698 721.998 432.688 718.241C432.672 710.88 432.666 703.519 432.665 696.158C432.664 690.174 432.66 684.189 432.653 678.205C432.634 660.312 432.625 642.419 432.628 624.526V621.751C432.629 606.911 432.61 592.069 432.582 577.229C432.553 561.988 432.54 546.747 432.542 531.507C432.542 522.951 432.536 514.396 432.515 505.84C432.497 498.555 432.492 491.27 432.506 483.985C432.512 480.269 432.513 476.554 432.496 472.838C432.476 468.806 432.489 464.775 432.505 460.743L432.473 457.201C432.529 450.581 433.057 444.549 436.999 439.001C441.964 435.761 447.518 435.561 453.292 435.597L455.675 435.577C458.25 435.562 460.825 435.559 463.401 435.567C465.207 435.563 467.012 435.557 468.818 435.552C472.593 435.542 476.368 435.545 480.142 435.555C484.962 435.566 489.781 435.546 494.6 435.517C498.326 435.499 502.052 435.499 505.778 435.505C507.554 435.505 509.33 435.499 511.106 435.486C531.056 435.366 531.056 435.366 537.999 441.876C540.844 447.922 540.169 455.074 540.204 461.606L540.234 465.126C540.266 468.956 540.291 472.787 540.315 476.618L540.378 484.596C540.428 490.876 540.473 497.155 540.516 503.434C540.566 510.584 540.621 517.736 540.676 524.887C540.79 539.592 540.896 554.297 540.999 569.001C546.559 566.816 546.559 566.816 550.999 563.001C553.708 561.647 556.009 561.936 558.999 562.001L559.147 559.821C560.294 556.023 562.62 554.254 565.624 551.876C566.134 551.446 566.642 551.017 567.167 550.576C572.007 546.632 576.597 544.001 582.999 544.001L583.999 540.001L587.999 539.001V290.001L539.999 289.001L540.104 307.567C540.12 311.455 540.134 315.342 540.145 319.23C540.163 325.396 540.185 331.563 540.225 337.73C540.258 342.703 540.275 347.676 540.284 352.65C540.289 354.544 540.3 356.44 540.316 358.334C540.338 360.994 540.341 363.652 540.34 366.312L540.372 368.672C540.343 373.829 539.458 377.437 536.999 382.001C534.187 383.814 534.187 383.814 530.999 385.001L528.279 386.057C524.567 387.125 521.144 387.297 517.316 387.292L515.057 387.312C512.605 387.331 510.154 387.335 507.702 387.337L502.553 387.357C498.959 387.369 495.365 387.373 491.77 387.372C487.186 387.372 482.603 387.399 478.02 387.433C474.474 387.455 470.93 387.459 467.384 387.458C465.695 387.461 464.006 387.47 462.318 387.485C444.068 387.637 444.068 387.637 436.999 383.001C433.408 377.614 432.749 372.912 432.739 366.507C432.734 365.773 432.731 365.039 432.727 364.283C432.717 361.835 432.72 359.387 432.724 356.939C432.72 355.179 432.714 353.419 432.709 351.66C432.695 346.887 432.695 342.115 432.697 337.342C432.698 333.353 432.694 329.365 432.689 325.377C432.678 315.964 432.677 306.551 432.683 297.138C432.689 287.438 432.677 277.739 432.656 268.039C432.638 259.703 432.632 251.366 432.636 243.029C432.637 238.055 432.635 233.079 432.621 228.104C432.609 223.423 432.609 218.742 432.623 214.061C432.625 212.348 432.622 210.635 432.614 208.921C432.532 190.611 432.532 190.611 437.554 182.485C441.545 180.063 445.534 180.324 450.123 180.264L453.511 180.178C458.511 180.069 463.511 180.025 468.513 179.977Z" fill="#AD3996"/>
<path d="M140.87 48.8694L143.703 48.8644C146.871 48.8594 150.039 48.8624 153.207 48.8644L160.047 48.8574C166.339 48.8514 172.632 48.8514 178.925 48.8534C185.005 48.8534 191.086 48.8484 197.167 48.8444C211.147 48.8344 225.128 48.8324 239.109 48.8314C253.785 48.8306 268.461 48.8272 283.137 48.8214C309.824 48.8137 336.511 48.8111 363.198 48.8134H370.699C396.646 48.8134 422.593 48.8064 448.54 48.7934C480.774 48.7754 513.007 48.7674 545.24 48.7694H547.557C559.877 48.7694 572.196 48.7634 584.515 48.7544C596.889 48.7464 609.262 48.7444 621.635 48.7514C628.345 48.7554 635.052 48.7554 641.76 48.7464C647.894 48.7384 654.028 48.7404 660.161 48.7484C662.388 48.7504 664.614 48.7484 666.84 48.7434C669.852 48.7364 672.864 48.7414 675.876 48.7494L678.531 48.7344L680.959 48.7484H683.046C685.423 49.0524 686.971 49.7284 688.999 50.9984C691.471 54.7064 691.269 56.6224 691.305 61.0524L691.331 63.2164C691.353 65.5786 691.367 67.941 691.371 70.3034L691.397 75.2314C691.414 78.6764 691.422 82.1214 691.425 85.5664C691.43 89.9764 691.468 94.3864 691.513 98.7984C691.543 102.191 691.55 105.585 691.551 108.979C691.555 110.605 691.568 112.231 691.589 113.857C691.616 116.133 691.611 118.408 691.599 120.685L691.614 124.608C690.809 129.048 689.57 130.265 685.999 132.998C682.908 133.722 679.894 133.669 676.73 133.628L673.878 133.649C670.705 133.668 667.534 133.65 664.361 133.633C662.071 133.639 659.781 133.647 657.491 133.657C651.184 133.677 644.878 133.667 638.571 133.652C632.471 133.639 626.373 133.655 620.274 133.667C607.028 133.694 593.781 133.691 580.534 133.677C568.943 133.664 557.35 133.661 545.758 133.667L543.43 133.668L534.073 133.673C504.805 133.688 475.536 133.674 446.267 133.648C420.252 133.624 394.237 133.626 368.223 133.65C335.896 133.682 303.568 133.688 271.24 133.667L268.917 133.666C257.331 133.662 245.745 133.666 234.159 133.679C220.987 133.694 207.816 133.69 194.645 133.663C187.921 133.648 181.196 133.648 174.471 133.661C168.321 133.676 162.172 133.668 156.022 133.641C153.792 133.636 151.561 133.639 149.33 133.651C146.309 133.666 143.29 133.651 140.268 133.627L137.614 133.663C133.269 133.595 131.517 133.394 127.959 130.67C125.393 127.172 125.371 125.018 125.368 120.7L125.346 118.531C125.329 116.174 125.349 113.819 125.37 111.463C125.37 109.82 125.367 108.178 125.363 106.536C125.36 103.098 125.375 99.6624 125.403 96.2244C125.436 91.8204 125.43 87.4174 125.411 83.0134C125.401 79.6234 125.41 76.2334 125.425 72.8444C125.43 71.2204 125.43 69.5964 125.423 67.9734C125.418 65.7034 125.438 63.4354 125.466 61.1664L125.484 57.2554C126.084 53.4594 127.001 52.3124 129.999 49.9984C133.364 48.3164 137.17 48.8614 140.87 48.8694Z" fill="#8F429A"/>
<path d="M382 448H383C383.91 454.961 384.142 461.756 384.127 468.772L384.132 472.28C384.135 475.471 384.134 478.662 384.131 481.853C384.128 485.303 384.132 488.753 384.135 492.203C384.139 498.952 384.138 505.701 384.135 512.451C384.132 520.316 384.132 528.18 384.135 536.045C384.138 550.928 384.135 565.81 384.129 580.693C384.125 593.455 384.126 606.218 384.13 618.98C384.136 635.395 384.138 651.809 384.134 668.224V670.583C384.132 676.062 384.134 681.54 384.136 687.019C384.139 693.697 384.138 700.375 384.133 707.054C384.13 710.459 384.13 713.865 384.133 717.27C384.134 720.965 384.133 724.66 384.127 728.355L384.134 731.602C384.119 737.164 383.827 742.499 383 748H382V462L380 461C380.14 459.02 380.287 457.041 380.437 455.063L380.684 451.723C381 449 381 449 382 448Z" fill="#806080"/>
<path d="M510.132 179.899C515.839 179.905 521.546 179.905 527.252 179.907C538.018 179.91 548.784 179.917 559.549 179.928C571.823 179.939 584.097 179.945 596.37 179.95C621.58 179.96 646.79 179.978 672 180V181L669.018 181.031C656.408 181.164 643.798 181.3 631.188 181.438L628.12 181.471C602.183 181.754 576.247 182.082 550.312 182.563C534.187 182.857 518.066 183.101 501.937 183.125L499.605 183.133C491.687 183.154 483.863 183.036 476 182V184L473.75 183.438C471.142 182.835 471.142 182.835 469.194 183.467C466.456 184.132 463.958 184.112 461.141 184.097L457.761 184.087L454.25 184.063L450.691 184.049C447.794 184.037 444.897 184.021 442 184L441 181C464.033 179.694 487.072 179.869 510.132 179.899Z" fill="#971A8E"/>
<path d="M382.002 198H383.002L384.002 369H382.002L381.002 373C380.979 350.773 380.961 328.547 380.95 306.32C380.945 296 380.938 285.68 380.927 275.36C380.917 266.368 380.91 257.374 380.907 248.381C380.907 243.618 380.904 238.855 380.897 234.091C380.89 229.61 380.887 225.128 380.889 220.647C380.889 219.001 380.887 217.354 380.883 215.708C380.878 213.463 380.879 211.218 380.882 208.973L380.879 205.163C380.98 202.565 381.227 200.463 382.002 198Z" fill="#886588"/>
<path d="M381.002 462H382.002V748H384.002V751H382.002L381.002 754C380.083 747.016 379.875 740.213 379.92 733.174L379.93 729.649C379.94 726.442 379.954 723.236 379.97 720.029C379.987 716.564 379.998 713.097 380.01 709.631C380.03 703.634 380.054 697.636 380.081 691.638C380.121 682.966 380.154 674.295 380.186 665.623C380.238 651.553 380.294 637.481 380.354 623.41C380.433 604.665 380.508 585.92 380.578 567.175C380.713 532.116 380.855 497.058 381.002 462Z" fill="#8E398F"/>
<path d="M675.821 179.94L679.067 179.905L681.753 179.867C685.983 180.111 688.745 181.707 691.641 184.685C693.485 187.821 693.296 190.138 693.188 193.747L693.105 197.294L693 199.997H692C691.806 198.54 691.619 197.081 691.438 195.622L691.121 193.162C691 190.997 691 190.997 692 188.997H690V186.997C680.212 182.58 668.133 183.856 657.605 183.899L653.625 183.904C650.182 183.907 646.738 183.917 643.294 183.928C639.76 183.938 636.227 183.943 632.694 183.948C625.796 183.958 618.898 183.976 612 183.997V182.997L583 181.997V180.997C599.69 180.804 616.38 180.613 633.07 180.424C640.13 180.342 647.189 180.262 654.249 180.182C659.439 180.122 664.629 180.067 669.819 180.019C671.819 179.999 673.82 179.97 675.821 179.94Z" fill="#C73298"/>
<path d="M378 182.002L380 184.002C379.625 186.127 379.625 186.127 379 188.002L377.207 186.873L374.813 185.439L372.457 183.999C369.41 182.763 368.19 183.347 365 184.002C362.731 184.088 360.46 184.12 358.19 184.116H356.178C353.998 184.116 351.818 184.108 349.637 184.1L345.084 184.095C341.101 184.092 337.118 184.082 333.134 184.071C329.066 184.061 324.997 184.056 320.928 184.051C312.952 184.041 304.976 184.023 297 184.002V182.002L299.182 181.971C305.965 181.873 312.748 181.771 319.532 181.663C323.019 181.607 326.506 181.554 329.993 181.505C334.003 181.448 338.011 181.383 342.02 181.318L345.817 181.268L349.335 181.208L352.437 181.16C372.759 179.906 372.759 179.906 378 182.002Z" fill="#7E46A0"/>
<path d="M137.545 180.858L139.957 180.864L142.487 180.86C145.262 180.858 148.037 180.865 150.813 180.872L153.675 180.875C175.457 180.899 197.227 181.402 219 181.997V182.997C205.149 183.19 191.297 183.381 177.446 183.57C171.587 183.652 165.727 183.733 159.868 183.812C156.193 183.863 152.518 183.912 148.844 183.95C146.426 183.98 144.008 184.021 141.59 184.08L138.609 184.136C137.779 184.156 136.948 184.178 136.092 184.2C134 183.997 134 183.997 131 181.997C132.781 180.216 135.173 180.868 137.545 180.858Z" fill="#5B4DA0"/>
<path d="M455.757 383.883H459.335L463.199 383.899L467.155 383.904C470.622 383.907 474.089 383.917 477.556 383.928C481.096 383.938 484.635 383.943 488.174 383.948C495.116 383.958 502.058 383.976 509 383.997V384.997H458V386.997H447V384.997C450.178 383.937 452.418 383.877 455.757 383.883Z" fill="#945094"/>
<path d="M378 182.001L380 184.001C379.625 186.126 379.625 186.126 379 188.001L377.207 186.872L374.813 185.438L372.457 183.998C369.464 182.784 368.07 183.174 365 184.001C362.667 184.043 360.333 184.043 358 184.001V182.001L355 181.001C362.15 178.618 371.022 179.21 378 182.001Z" fill="#8D4C95"/>
<path d="M381 350L382 354H384V369H382L381 373V350Z" fill="#894D89"/>
<path d="M132 181H175V182H136V184L131 183L132 181Z" fill="#4242BC"/>
<path d="M441 181H465C460.75 183.125 458.191 183.376 453.5 183.625L449.531 183.852C447.023 183.957 444.511 184 442 184L441 181Z" fill="#9C539C"/>
<path d="M658 614H661C660.712 617.214 659.9 618.093 657.496 620.36C656.486 621.148 655.477 621.937 654.438 622.75L651.371 625.172L649 627L647 626C647.688 623.625 647.688 623.625 649 621C651.375 619.875 651.375 619.875 654 619C656.285 617.6 656.285 617.6 658 616V614Z" fill="#D02AA4"/>
<path d="M691 588L693 590C692.865 594.875 690.388 597.687 687 601C683.687 601.875 683.687 601.875 681 602V600L683.438 599.187L686 598L687 595L688 593H690L691 588Z" fill="#CC2E94"/>
<path d="M380 758L382 759C380.812 762.438 380.812 762.438 379 766C375.842 767.413 374.458 767.153 371.187 766.063L369 765C372 763 372 763 374 763L375 761H380V758Z" fill="#844F91"/>
<path d="M332 738H336V742L338.375 742.438C341 743 341 743 343 744V749C340.5 747.625 340.5 747.625 338 746V744L335.562 743.25C333 742 333 742 332.188 739.875L332 738Z" fill="#9F41AA"/>
<path d="M382 448H383C383.904 454.326 383.904 459.674 383 466L382.625 464.062L382 462L380 461C380.14 459.02 380.287 457.041 380.438 455.062C380.518 453.96 380.6 452.858 380.684 451.722C381 449 381 449 382 448Z" fill="#855F86"/>
<path d="M362 436.002C368.435 435.652 373.352 435.707 379 439.002C380.438 441.19 380.438 441.19 381 443.002C375.358 441.335 375.358 441.335 373.187 439.314C369.617 437.172 365.967 438.299 362 439.002V436.002Z" fill="#9B4B9E"/>
<path d="M371 181C377.75 181.75 377.75 181.75 380 184L379 188L371 184V181Z" fill="#9D42A9"/>
<path d="M643 626L647 627V629C641.25 632 641.25 632 639 632L638 635L636 631L638.938 630.187L642 629L643 626Z" fill="#C528A6"/>
<path d="M126 591C129.095 592.548 130.252 595.086 132 598V601C128.25 599.75 127.134 598.277 125 595C125.25 592.687 125.25 592.687 126 591Z" fill="#4544B5"/>
<path d="M381 374L383 376C381.415 380.756 381.415 380.756 380 383C376.812 384.438 376.812 384.438 374 385V383L375.875 382.812C378.244 382.182 378.244 382.182 379.188 379.625L380 377L381 374Z" fill="#90509A"/>
<path d="M445 763.003L443 767.003L438 766.003L439 763.003C441.49 761.758 442.41 762.226 445 763.003Z" fill="#A835AA"/>
<path d="M127.563 182.939L130 183.001L129 187.001L124 188.001L123 191.001C124.015 183.025 124.015 183.024 127.563 182.938V182.939Z" fill="#4444B9"/>
<path d="M691 588L693 590C692.822 593.383 692.212 594.763 689.937 597.313L688 599V593H690L691 588Z" fill="#DB2391"/>
<path d="M277 375H279V378H282L283 384C280.507 383.003 279.225 382.35 277.75 380.062C277 378 277 378 277 375Z" fill="#5C3FA6"/>
<path d="M380 758L382 759C380.812 762.438 380.812 762.438 379 766C376.312 766.938 376.312 766.938 374 767L377 766L378 761H380V758Z" fill="#BA31BF"/>
<path d="M571 548L572 551H569L568 555L563 556C567.625 550.25 567.625 550.25 571 548Z" fill="#B627AA"/>
<path d="M139 603L142 604V606L146 607V608C143.75 608.25 143.75 608.25 141 608C138.687 606 138.687 606 137 604L139 603Z" fill="#5E5D9D"/>
<path d="M349 750C351.625 750.938 351.625 750.938 354 752V755C351.98 754.396 349.979 753.729 348 753L347 751L349 750Z" fill="#A33BAF"/>
<path d="M161 620C163.438 620.75 163.438 620.75 166 622C166.813 624.125 166.813 624.125 167 626L165 627V625L162 624C161.312 621.937 161.312 621.937 161 620Z" fill="#4B48B3"/>
<path d="M246 287V289L248 290H239V288C242 287 242 287 246 287Z" fill="#74648A"/>
<path d="M175 628L180 632L179 635L177 634V632H175V628Z" fill="#4F3DB9"/>
<path d="M146 608C149.161 609.37 149.993 609.99 152 613L150 614L147 613L146 608Z" fill="#4F4FAD"/>
<path d="M440 181C441.021 181.979 442.02 182.98 443 184V185L436 186C437 183 437 183 440 181Z" fill="#A540A6"/>
</g>
<defs>
<clipPath id="clip0_571_999">
<rect width="837" height="816" fill="white"/>
</clipPath>
</defs>
</svg>
