<svg width="24" height="24" viewBox="0 0 24 24" fill="none" xmlns="http://www.w3.org/2000/svg">
<path d="M11.4358 5.4247C11.5563 5.4247 11.6166 5.35437 11.6468 5.24388C11.9581 3.56641 11.9381 3.52625 13.6858 3.19475C13.8063 3.1747 13.8767 3.10437 13.8767 2.98381C13.8767 2.8633 13.8063 2.79297 13.6858 2.77287C11.9481 2.42135 11.9983 2.38115 11.6468 0.723783C11.6166 0.613297 11.5563 0.542969 11.4358 0.542969C11.3153 0.542969 11.255 0.613297 11.2249 0.723783C10.8733 2.38115 10.9336 2.42135 9.18583 2.77287C9.07534 2.79297 8.99499 2.8633 8.99499 2.98381C8.99499 3.10437 9.07534 3.1747 9.18583 3.19475C10.9336 3.54635 10.9135 3.56641 11.2249 5.24388C11.255 5.35437 11.3153 5.4247 11.4358 5.4247ZM6.57424 12.3354C6.76509 12.3354 6.89567 12.2149 6.91573 12.0341C7.27736 9.35212 7.36774 9.35213 10.1401 8.8198C10.3209 8.78963 10.4514 8.66911 10.4514 8.47827C10.4514 8.29745 10.3209 8.16687 10.1401 8.13674C7.36774 7.75505 7.26729 7.66463 6.91573 4.93248C6.89567 4.75171 6.76509 4.62113 6.57424 4.62113C6.39343 4.62113 6.26284 4.75171 6.24274 4.94255C5.91129 7.6345 5.77063 7.62447 3.01843 8.13674C2.83762 8.17694 2.70703 8.29745 2.70703 8.47827C2.70703 8.67914 2.83762 8.78963 3.05859 8.8198C5.79073 9.26174 5.91129 9.33207 6.24274 12.014C6.26284 12.2149 6.39343 12.3354 6.57424 12.3354ZM13.3845 23.4548C13.6457 23.4548 13.8365 23.264 13.8867 22.9928C14.5999 17.4883 15.3733 16.6546 20.8175 16.0519C21.0988 16.0218 21.2896 15.8108 21.2896 15.5497C21.2896 15.2885 21.0988 15.0876 20.8175 15.0475C15.3733 14.4448 14.5999 13.6111 13.8867 8.10661C13.8365 7.83541 13.6457 7.6546 13.3845 7.6546C13.1233 7.6546 12.9325 7.83541 12.8923 8.10661C12.1791 13.6111 11.3957 14.4448 5.96147 15.0475C5.67022 15.0876 5.47937 15.2885 5.47937 15.5497C5.47937 15.8108 5.67022 16.0218 5.96147 16.0519C11.3856 16.7651 12.1389 17.4984 12.8923 22.9928C12.9325 23.264 13.1233 23.4548 13.3845 23.4548Z" fill="white"/>
</svg>
